<svg width="59" height="59" viewBox="0 0 59 59" fill="none" xmlns="http://www.w3.org/2000/svg">
<path d="M28.3473 56.0965C27.9913 56.0841 27.641 56.0673 27.2872 56.0404C27.1298 56.0281 26.969 56.0169 26.8116 56.0024C26.5688 55.9822 26.3304 55.9554 26.0875 55.9262C25.9799 55.9139 25.8746 55.8993 25.766 55.8848C25.4855 55.849 25.2083 55.8086 24.9311 55.7605C24.818 55.7425 24.7004 55.7224 24.5863 55.7011C24.0729 55.6104 23.5618 55.5041 23.0594 55.3831C22.9164 55.3483 22.7734 55.3125 22.6304 55.2745C22.5084 55.2453 22.382 55.2128 22.2633 55.177C21.9806 55.1009 21.7001 55.0181 21.4196 54.9295C21.2965 54.8915 21.1745 54.8534 21.0514 54.812C20.8996 54.765 20.7476 54.7112 20.5957 54.6586C20.4671 54.6138 20.3385 54.5702 20.211 54.5198C20.1267 54.4906 20.0446 54.4616 19.9626 54.4291C19.8163 54.3765 19.6732 54.3204 19.5301 54.2611C18.9525 54.0337 18.3858 53.7829 17.8315 53.5153C17.6918 53.4471 17.5521 53.3798 17.4146 53.3093C16.8779 53.0405 16.3524 52.7516 15.8356 52.4426C15.6982 52.3631 15.5618 52.2802 15.4265 52.1951C13.842 51.2164 12.3618 50.0665 11.0135 48.7665C10.8992 48.6601 10.7884 48.5515 10.6809 48.4395C10.57 48.3309 10.4591 48.2178 10.3538 48.1069C10.243 47.9983 10.1376 47.8863 10.0323 47.771C9.94806 47.6826 9.86268 47.5885 9.78059 47.4967C9.44244 47.1249 9.11868 46.7453 8.80263 46.3557C8.60413 46.1138 8.41126 45.8663 8.22498 45.6167C8.1285 45.489 8.03541 45.3625 7.94448 45.236C7.85138 45.1095 7.75819 44.9796 7.67065 44.8497C7.58639 44.7321 7.5043 44.6134 7.4256 44.4925C7.32912 44.3514 7.23602 44.2058 7.14284 44.0625C7.0552 43.9293 6.97094 43.7971 6.88894 43.6617C6.8013 43.5261 6.71931 43.3907 6.6406 43.2552C6.39555 42.8453 6.16159 42.43 5.9376 42.0021C5.86218 41.8599 5.78903 41.7189 5.71916 41.5744C5.64374 41.4333 5.57284 41.2877 5.50626 41.1433C5.4364 40.9966 5.36653 40.851 5.29892 40.7044L20.3152 23.8487C25.2194 18.896 33.1993 18.896 38.1025 23.8487L53.1221 40.7044C52.8005 41.4031 52.4479 42.0895 52.0687 42.7591C52.0077 42.8655 51.9456 42.9718 51.8813 43.0783C51.8258 43.1724 51.7704 43.2641 51.7149 43.3582C51.6185 43.5206 51.5187 43.6796 51.4178 43.8386C48.7766 47.9985 45.0611 51.3297 40.6703 53.4696C37.0857 55.2231 33.2282 56.1133 29.2055 56.1133C28.9161 56.1133 28.63 56.1077 28.344 56.0987M2.85732 29.4989C2.85732 14.8245 14.6781 2.889 29.2077 2.889C43.7373 2.889 55.5636 14.8245 55.5636 29.4989C55.5636 32.3408 55.1289 35.1145 54.2641 37.7739L40.1226 23.4947C34.1041 17.4167 24.3146 17.4167 18.2961 23.4947L4.15462 37.7773C3.29091 35.1179 2.85619 32.342 2.85619 29.5M0 29.4989C0 33.1571 0.654196 36.718 1.94039 40.0929C2.04797 40.3796 2.16213 40.6651 2.27967 40.9473C6.85895 51.9131 17.4279 59 29.2077 59C33.6672 59 37.9438 58.0124 41.9188 56.064C46.7809 53.6935 50.8967 50.0061 53.8239 45.3961C54.7198 43.9841 55.5026 42.4869 56.1413 40.945L56.1735 40.8655C56.2755 40.6236 56.372 40.3818 56.4629 40.1399C57.7624 36.7493 58.421 33.1739 58.421 29.4989C58.421 13.2333 45.3162 0 29.2078 0C13.0993 0 9.40342e-05 13.2321 9.40342e-05 29.4989H0Z" fill="#DBF227"/>
</svg>
