<svg width="176" height="59" viewBox="0 0 176 59" fill="none" xmlns="http://www.w3.org/2000/svg">
<g clip-path="url(#clip0_2_703)">
<path d="M28.3473 56.0965C27.9913 56.0841 27.641 56.0673 27.2872 56.0404C27.1298 56.0281 26.969 56.0169 26.8116 56.0024C26.5688 55.9822 26.3304 55.9554 26.0875 55.9262C25.9799 55.9139 25.8746 55.8993 25.766 55.8848C25.4855 55.849 25.2083 55.8086 24.9311 55.7605C24.818 55.7425 24.7004 55.7224 24.5863 55.7011C24.0729 55.6104 23.5618 55.5041 23.0594 55.3831C22.9164 55.3483 22.7734 55.3125 22.6304 55.2745C22.5084 55.2453 22.382 55.2128 22.2633 55.177C21.9806 55.1009 21.7001 55.018 21.4196 54.9295C21.2965 54.8915 21.1745 54.8534 21.0514 54.812C20.8996 54.765 20.7476 54.7112 20.5957 54.6586C20.4671 54.6138 20.3385 54.5702 20.211 54.5198C20.1267 54.4906 20.0446 54.4616 19.9626 54.4291C19.8163 54.3765 19.6732 54.3204 19.5301 54.2611C18.9525 54.0337 18.3858 53.7829 17.8315 53.5153C17.6918 53.4471 17.5521 53.3798 17.4146 53.3093C16.8779 53.0405 16.3524 52.7516 15.8356 52.4426C15.6982 52.3631 15.5618 52.2802 15.4265 52.1951C13.842 51.2164 12.3618 50.0665 11.0135 48.7665C10.8992 48.6601 10.7884 48.5515 10.6809 48.4395C10.57 48.3309 10.4591 48.2178 10.3538 48.1069C10.243 47.9983 10.1376 47.8863 10.0323 47.771C9.94806 47.6826 9.86268 47.5885 9.78059 47.4967C9.44244 47.1249 9.11868 46.7453 8.80263 46.3557C8.60413 46.1138 8.41126 45.8663 8.22498 45.6167C8.1285 45.489 8.03541 45.3625 7.94448 45.236C7.85138 45.1095 7.75819 44.9796 7.67065 44.8497C7.58639 44.7321 7.5043 44.6134 7.4256 44.4925C7.32912 44.3514 7.23602 44.2058 7.14284 44.0625C7.0552 43.9293 6.97094 43.7971 6.88894 43.6617C6.8013 43.5261 6.71931 43.3907 6.6406 43.2552C6.39555 42.8453 6.16159 42.43 5.9376 42.0021C5.86218 41.8599 5.78903 41.7189 5.71916 41.5744C5.64374 41.4333 5.57284 41.2877 5.50626 41.1433C5.4364 40.9966 5.36653 40.851 5.29892 40.7044L20.3152 23.8487C25.2194 18.896 33.1993 18.896 38.1025 23.8487L53.1221 40.7044C52.8005 41.4031 52.4479 42.0895 52.0687 42.7591C52.0077 42.8655 51.9456 42.9718 51.8813 43.0783C51.8258 43.1724 51.7704 43.2641 51.7149 43.3582C51.6185 43.5206 51.5187 43.6796 51.4178 43.8386C48.7767 47.9985 45.0611 51.3297 40.6703 53.4696C37.0857 55.2231 33.2282 56.1133 29.2055 56.1133C28.9161 56.1133 28.63 56.1077 28.344 56.0987M2.85732 29.4989C2.85732 14.8245 14.6781 2.889 29.2077 2.889C43.7373 2.889 55.5636 14.8245 55.5636 29.4989C55.5636 32.3408 55.1289 35.1145 54.2641 37.7739L40.1226 23.4947C34.1041 17.4167 24.3146 17.4167 18.2961 23.4947L4.15462 37.7773C3.29091 35.1179 2.85619 32.342 2.85619 29.5M0 29.4989C0 33.1571 0.654196 36.718 1.9404 40.0929C2.04797 40.3796 2.16213 40.6651 2.27967 40.9473C6.85895 51.9131 17.4279 59 29.2077 59C33.6672 59 37.9438 58.0124 41.9188 56.064C46.7809 53.6935 50.8967 50.0061 53.8239 45.3961C54.7198 43.9841 55.5026 42.4869 56.1413 40.945L56.1735 40.8655C56.2755 40.6236 56.372 40.3818 56.4629 40.1399C57.7624 36.7493 58.421 33.1739 58.421 29.4989C58.421 13.2333 45.3162 0 29.2078 0C13.0993 0 9.40342e-05 13.2321 9.40342e-05 29.4989H0Z" fill="#4D4D33"/>
<path d="M101.193 43.8545H97.178C95.0408 38.3422 92.9316 32.8672 90.8315 27.4203C88.7314 21.9828 86.6406 16.4985 84.5405 10.9862L71.2 43.8546H69.5718L84.9198 5.89429H86.6036C89.0275 12.2475 91.4514 18.5726 93.8752 24.8698C96.299 31.1669 98.7415 37.492 101.193 43.8453" fill="#031C2C"/>
<path d="M120.824 4.52093C123.535 4.52093 126.07 5.03478 128.42 6.05318C130.77 7.07158 132.833 8.48237 134.6 10.2668L133.027 12.1261C131.51 10.2668 129.697 8.78131 127.606 7.68818C125.506 6.59505 123.248 6.04387 120.824 6.04387C118.401 6.04387 116.467 6.5204 114.478 7.46397C112.489 8.41694 110.75 9.70627 109.269 11.3507C107.789 12.995 106.624 14.9196 105.772 17.1339C104.921 19.3388 104.496 21.7119 104.496 24.2252C104.496 26.7384 104.921 29.1022 105.772 31.2884C106.624 33.484 107.789 35.3993 109.269 37.0436C110.75 38.688 112.489 39.9867 114.478 40.9303C116.467 41.8833 118.586 42.3504 120.824 42.3504C123.063 42.3504 125.034 41.902 126.958 41.0051C128.873 40.1081 130.566 38.8936 132.028 37.3613C133.49 35.8291 134.674 34.0166 135.58 31.9424C136.487 29.859 136.987 27.6166 137.098 25.2062H120.824V23.674H140.354V24.2253C140.354 26.9254 139.836 29.476 138.809 31.8678C137.782 34.2596 136.385 36.3524 134.637 38.1369C132.879 39.9308 130.825 41.3415 128.457 42.3785C126.089 43.4157 123.544 43.9388 120.834 43.9388C118.123 43.9388 115.579 43.4157 113.211 42.3785C110.842 41.3414 108.779 39.9213 107.031 38.1369C105.273 36.3524 103.885 34.2596 102.858 31.8678C101.831 29.476 101.313 26.9254 101.313 24.2253C101.313 21.5251 101.831 18.9185 102.858 16.5267C103.885 14.1349 105.282 12.0514 107.031 10.2856C108.788 8.51048 110.842 7.10909 113.211 6.07198C115.579 5.03488 118.123 4.51172 120.834 4.51172" fill="#031C2C"/>
<path d="M144.536 5.89429H157.229C159.801 5.89429 162.215 6.39883 164.5 7.39852C166.776 8.40752 168.765 9.76228 170.468 11.4814C172.17 13.2006 173.511 15.2092 174.51 17.5076C175.51 19.8059 176 22.2725 176 24.8978C176 27.5231 175.5 29.9897 174.51 32.288C173.511 34.5863 172.17 36.5951 170.468 38.3142C168.765 40.0333 166.776 41.388 164.5 42.3971C162.225 43.406 159.801 43.9013 157.229 43.9013H144.536V5.89429ZM148.273 7.42654V42.369H155.434C157.821 42.369 160.05 41.9112 162.132 40.9957C164.214 40.08 166.036 38.8281 167.609 37.2398C169.182 35.6515 170.421 33.8016 171.328 31.6808C172.235 29.56 172.688 27.299 172.688 24.8885C172.688 22.478 172.235 20.217 171.328 18.0962C170.421 15.9753 169.182 14.1254 167.609 12.5371C166.036 10.9489 164.214 9.69685 162.132 8.7813C160.051 7.86565 157.821 7.40792 155.434 7.40792H148.273V7.42654Z" fill="#031C2C"/>
<path d="M76.5104 52.5994V56.2898H75.8628L75.798 54.8603C75.2984 55.7945 74.4102 56.4112 73.152 56.4112C71.1075 56.4112 69.5718 54.8043 69.5718 52.8516C69.5718 50.899 71.1908 49.1892 73.1983 49.1892C75.2058 49.1892 76.094 50.0581 76.4825 51.6277H75.6221C75.2798 50.4973 74.2252 49.9553 73.2075 49.9553C71.6071 49.9553 70.3766 51.1699 70.3766 52.8609C70.3766 54.5519 71.5238 55.6638 73.1428 55.6638C74.7618 55.6638 75.4557 54.6641 75.6407 53.3655V52.618H76.4918L76.5104 52.5993V52.5994Z" fill="#A5B2BA"/>
<path d="M85.7247 52.7956C85.7247 54.8043 84.1149 56.4113 82.1259 56.4113C80.1369 56.4113 78.5271 54.8043 78.5271 52.7956C78.5271 50.7869 80.1369 49.1799 82.1259 49.1799C84.1149 49.1799 85.7247 50.7869 85.7247 52.7956ZM84.9105 52.7956C84.9105 51.2166 83.6893 49.9367 82.1259 49.9367C80.5625 49.9367 79.3412 51.2073 79.3412 52.7956C79.3412 54.3839 80.5625 55.6545 82.1259 55.6545C83.6893 55.6545 84.9105 54.3839 84.9105 52.7956Z" fill="#A5B2BA"/>
<path d="M92.4414 55.5426V56.29H87.825V49.3015H88.6298V55.5333H92.4414V55.5426Z" fill="#A5B2BA"/>
<path d="M100.296 52.7489C100.296 54.823 98.7784 56.2898 96.6414 56.2898H94.2083V49.3013H96.6414C98.7785 49.3013 100.296 50.7308 100.296 52.7395V52.7489ZM99.4723 52.7489C99.4723 51.1886 98.2881 50.0581 96.6414 50.0581H95.0132V55.5424H96.6414C98.2881 55.5424 99.4723 54.3839 99.4723 52.7489Z" fill="#A5B2BA"/>
<path d="M110.796 56.29L109.889 55.4678C109.288 56.0938 108.557 56.4207 107.66 56.4207C106.189 56.4207 105.208 55.5705 105.208 54.3559C105.208 53.1413 105.81 52.7489 106.614 52.422C106.18 51.9174 105.976 51.497 105.976 50.9832C105.976 49.9088 106.827 49.1426 107.993 49.1426C109.159 49.1426 109.862 49.8433 110.001 51.0112H109.223C109.122 50.2357 108.631 49.8433 107.984 49.8433C107.336 49.8433 106.781 50.3199 106.781 51.0019C106.781 51.6839 107.392 52.2538 108.548 53.2816L109.815 54.4402L110.898 52.8706H111.712L110.38 54.842C110.361 54.8607 110.352 54.8794 110.324 54.9167L111.832 56.2808H110.796V56.2901L110.796 56.29ZM109.381 55.0006L107.891 53.6553C107.595 53.3844 107.336 53.1507 107.105 52.9358C106.439 53.2068 105.976 53.6926 105.976 54.3559C105.976 55.0193 106.67 55.7293 107.678 55.7293C108.687 55.7293 108.9 55.4678 109.381 55.0006Z" fill="#A5B2BA"/>
<path d="M122.915 52.7489C122.915 54.823 121.398 56.2898 119.261 56.2898H116.828V49.3013H119.261C121.398 49.3013 122.915 50.7308 122.915 52.7395V52.7489ZM122.092 52.7489C122.092 51.1886 120.908 50.0581 119.261 50.0581H117.633V55.5424H119.261C120.908 55.5424 122.092 54.3839 122.092 52.7489Z" fill="#A5B2BA"/>
<path d="M125.82 49.3108V56.2993H125.016V49.3108H125.82Z" fill="#A5B2BA"/>
<path d="M132.851 54.3374H129.28L128.429 56.29H127.569L130.696 49.3015H131.454L134.581 56.29H133.721L132.87 54.3374H132.851ZM132.528 53.6086L131.066 50.2639L129.604 53.6086H132.537H132.528Z" fill="#A5B2BA"/>
<path d="M143.074 56.29H142.269V51.086L139.957 54.954H139.429L137.098 51.058L137.116 56.29H136.312V49.3015H136.922L139.688 53.9636L142.454 49.3015H143.065V56.29H143.074Z" fill="#A5B2BA"/>
<path d="M152.363 52.7956C152.363 54.8043 150.753 56.4113 148.764 56.4113C146.775 56.4113 145.165 54.8043 145.165 52.7956C145.165 50.7869 146.775 49.1799 148.764 49.1799C150.753 49.1799 152.363 50.7869 152.363 52.7956ZM151.548 52.7956C151.548 51.2166 150.327 49.9367 148.764 49.9367C147.2 49.9367 145.979 51.2073 145.979 52.7956C145.979 54.3839 147.2 55.6545 148.764 55.6545C150.327 55.6545 151.548 54.3839 151.548 52.7956Z" fill="#A5B2BA"/>
<path d="M160.365 49.3108V56.2993H159.699L155.277 50.7963V56.2993H154.472V49.3108H155.12L159.56 54.8885V49.3108H160.365Z" fill="#A5B2BA"/>
<path d="M168.849 52.7489C168.849 54.823 167.331 56.2898 165.194 56.2898H162.761V49.3013H165.194C167.331 49.3013 168.849 50.7308 168.849 52.7395V52.7489ZM168.025 52.7489C168.025 51.1886 166.841 50.0581 165.194 50.0581H163.566V55.5424H165.194C166.841 55.5424 168.025 54.3839 168.025 52.7489Z" fill="#A5B2BA"/>
<path d="M175.991 51.226H175.186C175.029 50.3945 174.455 49.8807 173.326 49.8807C172.198 49.8807 171.652 50.3385 171.652 51.1326C171.652 51.9267 172.087 52.0949 172.91 52.263L174.039 52.4779C175.279 52.7209 175.982 53.2907 175.982 54.3185C175.982 55.3463 174.946 56.4114 173.391 56.4114C171.837 56.4114 170.653 55.5612 170.505 54.0476H171.301C171.467 55.094 172.207 55.6826 173.438 55.6826C174.668 55.6826 175.168 55.1968 175.168 54.412C175.168 53.6272 174.788 53.4216 173.919 53.2721L172.623 53.0105C171.393 52.7769 170.801 52.1416 170.801 51.1793C170.801 50.217 171.8 49.1799 173.28 49.1799C174.761 49.1799 175.824 49.7872 175.991 51.226H175.991Z" fill="#A5B2BA"/>
</g>
<defs>
<clipPath id="clip0_2_703">
<rect width="176" height="59" fill="white"/>
</clipPath>
</defs>
</svg>
