<svg width="33" height="33" viewBox="0 0 33 33" fill="none" xmlns="http://www.w3.org/2000/svg">
<path d="M2.94545 29.4545H0V20.6182H8.83636V23.5636H5.184C7.55509 27.1129 11.6051 29.4545 16.2 29.4545C19.7153 29.4545 23.0867 28.0581 25.5724 25.5724C28.0581 23.0867 29.4545 19.7153 29.4545 16.2H32.4C32.4 25.1542 25.1542 32.4 16.2 32.4C10.7215 32.4 5.87618 29.6755 2.94545 25.5224V29.4545ZM0 16.2C0 7.24582 7.24582 0 16.2 0C21.6785 0 26.5238 2.72455 29.4545 6.87764V2.94545H32.4V11.7818H23.5636V8.83636H27.216C24.8449 5.28709 20.7949 2.94545 16.2 2.94545C12.6847 2.94545 9.31333 4.34191 6.82762 6.82762C4.34191 9.31333 2.94545 12.6847 2.94545 16.2H0Z" fill="#DBF227"/>
<path d="M13.6229 12.0768C13.6229 13.4612 14.8895 14.0061 17.5109 14.875C21.0455 16.0974 21.9438 17.8941 21.9438 19.9412C21.9438 23.8145 18.262 24.5508 17.6729 24.6834V26.5095H14.7275V24.6097C13.8144 24.3446 11.3844 23.4757 10.4565 20.2505L12.9013 19.2637C12.9896 19.5877 13.7555 22.3417 16.4358 22.3417C17.8055 22.3417 19.3518 21.6348 19.3518 19.9706C19.3518 18.5568 18.3209 17.8057 15.994 16.981C14.374 16.3919 11.0604 15.4494 11.0604 12.1063C11.0604 11.959 11.0751 8.57172 14.7275 7.74699V5.89136H17.6729V7.71754C20.206 8.18881 21.1927 10.3537 21.4136 11.0164L19.0867 12.0032C18.9247 11.4877 18.2178 10.0297 16.2885 10.0297C15.2576 10.0297 13.6229 10.5746 13.6229 12.0768Z" fill="#DBF227"/>
</svg>
