<svg width="31" height="33" viewBox="0 0 31 33" fill="none" xmlns="http://www.w3.org/2000/svg">
<path d="M12.96 0L24.7828 3.6936C25.1125 3.79654 25.4007 4.00218 25.6053 4.28051C25.8099 4.55883 25.9201 4.89527 25.92 5.2407V8.1H29.16C29.5896 8.1 30.0017 8.27068 30.3055 8.57449C30.6093 8.8783 30.78 9.29035 30.78 9.72V22.68C30.78 23.1096 30.6093 23.5217 30.3055 23.8255C30.0017 24.1293 29.5896 24.3 29.16 24.3L23.9436 24.3016C23.3167 25.1278 22.5553 25.8568 21.6756 26.4562L12.96 32.4L4.2444 26.4578C2.93629 25.566 1.86584 24.368 1.12613 22.9682C0.386416 21.5684 -0.000163981 20.0091 5.21799e-08 18.4259V5.2407C0.000195382 4.89555 0.110624 4.55947 0.315191 4.28147C0.519757 4.00347 0.807767 3.79808 1.13724 3.69522L12.96 0ZM12.96 3.39228L3.24 6.4314V18.4259C3.23977 19.4177 3.4672 20.3963 3.90479 21.2864C4.34238 22.1764 4.97843 22.9542 5.76396 23.5597L6.07014 23.78L12.96 28.4796L19.0868 24.3H11.34C10.9103 24.3 10.4983 24.1293 10.1945 23.8255C9.89068 23.5217 9.72 23.1096 9.72 22.68V9.72C9.72 9.29035 9.89068 8.8783 10.1945 8.57449C10.4983 8.27068 10.9103 8.1 11.34 8.1H22.68V6.4314L12.96 3.39228ZM12.96 16.2V21.06H27.54V16.2H12.96ZM12.96 12.96H27.54V11.34H12.96V12.96Z" fill="#DBF227"/>
</svg>
