<svg width="33" height="33" viewBox="0 0 33 33" fill="none" xmlns="http://www.w3.org/2000/svg">
<path fill-rule="evenodd" clip-rule="evenodd" d="M26.7119 0.371903C28.2099 -0.0890335 29.8877 -0.19172 31.2119 0.47037C31.5225 0.625671 31.7743 0.877524 31.9296 1.18813C32.5917 2.51231 32.489 4.19005 32.0281 5.68809C31.5491 7.24493 30.6084 8.87617 29.2216 10.263L24.2253 15.2593L26.9259 27.562L25.3583 27.9061L26.9321 27.5914C27.2364 29.1131 26.5556 30.3384 25.5188 31.116C25.406 31.2006 25.2827 31.2699 25.1519 31.3222L24.3494 31.6432C23.0149 32.177 21.3851 31.9708 20.3829 30.6345C20.3637 30.6089 20.3452 30.5827 20.3276 30.556L15.5986 23.3949L12.8396 25.2342V29.1901C12.8396 29.6157 12.6705 30.024 12.3696 30.325L10.7646 31.9299C10.4246 32.2699 9.95007 32.4396 9.47158 32.3922C8.99309 32.3448 8.56104 32.0854 8.29432 31.6853L5.26247 27.1375L0.714694 24.1057C0.314617 23.839 0.0551997 23.4069 0.00781954 22.9284C-0.0395605 22.4499 0.130088 21.9754 0.470089 21.6354L2.07504 20.0304C2.37603 19.7295 2.78426 19.5604 3.20991 19.5604H7.16583L9.00511 16.8014L1.844 12.0724C1.81727 12.0548 1.79108 12.0363 1.76546 12.0171C0.429154 11.0149 0.222999 9.38508 0.756782 8.05062C0.788571 7.97115 0.826668 7.89434 0.870707 7.82094L1.32542 7.06309C2.00362 5.77416 3.36861 5.17994 4.80863 5.46795L4.83799 5.4741L17.1407 8.1747L22.137 3.17844C23.5238 1.79156 25.1551 0.850929 26.7119 0.371903ZM23.7865 28.2312L20.9017 15.0896C20.7844 14.5551 20.9475 13.9976 21.3345 13.6106L26.9518 7.9933C27.9724 6.97275 28.6367 5.79532 28.9601 4.7441C29.1575 4.10284 29.2065 3.5885 29.1857 3.21433C28.8115 3.1935 28.2972 3.24255 27.6559 3.43986C26.6047 3.76331 25.4273 4.42764 24.4067 5.44819L18.7894 11.0655C18.4024 11.4525 17.8449 11.6156 17.3104 11.4983L4.16879 8.61354C4.15799 8.61156 4.14822 8.61006 4.13948 8.60894C4.12832 8.62952 4.11671 8.64987 4.10466 8.66995L3.70701 9.33271C3.69229 9.38879 3.69084 9.42629 3.69168 9.4459L12.1191 15.0112C12.4753 15.2464 12.7231 15.6139 12.8078 16.0323C12.8924 16.4507 12.8069 16.8855 12.5701 17.2407L9.36018 22.0556C9.06251 22.5021 8.56139 22.7703 8.02477 22.7703H4.49833L7.31009 24.6448C7.4864 24.7623 7.63768 24.9136 7.75522 25.0899L9.62973 27.9017V24.3752C9.62973 23.8386 9.89792 23.3375 10.3444 23.0398L15.1593 19.8299C15.5145 19.5931 15.9493 19.5076 16.3677 19.5922C16.7861 19.6769 17.1536 19.9247 17.3888 20.2809L22.9541 28.7083C22.9828 28.7095 23.0498 28.7059 23.1572 28.6629L23.7192 28.4381C23.7682 28.3867 23.7841 28.3542 23.7876 28.3462C23.7906 28.3393 23.7924 28.3334 23.7934 28.3226C23.7945 28.3116 23.7959 28.2828 23.7865 28.2312Z" fill="#DBF227"/>
</svg>
