<svg width="72" height="72" viewBox="0 0 72 72" fill="none" xmlns="http://www.w3.org/2000/svg">
<path d="M49.2548 30.1078C50.036 30.1078 50.7853 30.4182 51.3377 30.9706C51.8901 31.523 52.2004 32.2722 52.2004 33.0534V38.9446C52.2004 39.7258 51.8901 40.4751 51.3377 41.0275C50.7853 41.5799 50.036 41.8902 49.2548 41.8902H47.6907C47.3316 44.7376 45.9458 47.356 43.7933 49.2542C41.6408 51.1524 38.8695 52.1998 35.9996 52.1998V49.2542C38.3433 49.2542 40.591 48.3232 42.2482 46.666C43.9054 45.0087 44.8364 42.7611 44.8364 40.4174V31.5806C44.8364 29.2369 43.9054 26.9893 42.2482 25.3321C40.591 23.6748 38.3433 22.7438 35.9996 22.7438C33.656 22.7438 31.4083 23.6748 29.7511 25.3321C28.0938 26.9893 27.1628 29.2369 27.1628 31.5806V41.8902H22.7444C21.9632 41.8902 21.214 41.5799 20.6616 41.0275C20.1092 40.4751 19.7988 39.7258 19.7988 38.9446V33.0534C19.7988 32.2722 20.1092 31.523 20.6616 30.9706C21.214 30.4182 21.9632 30.1078 22.7444 30.1078H24.3085C24.6679 27.2607 26.0539 24.6427 28.2064 22.7448C30.3589 20.847 33.1299 19.7998 35.9996 19.7998C38.8693 19.7998 41.6403 20.847 43.7928 22.7448C45.9453 24.6427 47.3313 27.2607 47.6907 30.1078H49.2548Z" fill="#DBF227"/>
<path d="M31.3165 39.0762L29.7554 41.574C31.6269 42.7466 33.7915 43.3669 36 43.3635C38.2086 43.3669 40.3732 42.7466 42.2447 41.574L40.6835 39.0762C39.2799 39.9555 37.6564 40.4206 36 40.4179C34.3437 40.4206 32.7202 39.9555 31.3165 39.0762Z" fill="#DBF227"/>
</svg>
