<svg width="33" height="33" viewBox="0 0 33 33" fill="none" xmlns="http://www.w3.org/2000/svg">
<path d="M29.456 10.308C30.2372 10.308 30.9864 10.6183 31.5388 11.1708C32.0912 11.7232 32.4016 12.4724 32.4016 13.2536V19.1448C32.4016 19.926 32.0912 20.6752 31.5388 21.2277C30.9864 21.7801 30.2372 22.0904 29.456 22.0904H27.8919C27.5328 24.9378 26.147 27.5562 23.9945 29.4544C21.8419 31.3526 19.0707 32.3999 16.2008 32.4V29.4544C18.5445 29.4544 20.7921 28.5234 22.4493 26.8662C24.1066 25.2089 25.0376 22.9613 25.0376 20.6176V11.7808C25.0376 9.43714 24.1066 7.18947 22.4493 5.53225C20.7921 3.87503 18.5445 2.94401 16.2008 2.94401C13.8571 2.94401 11.6095 3.87503 9.95223 5.53225C8.29501 7.18947 7.36399 9.43714 7.36399 11.7808V22.0904H2.9456C2.16438 22.0904 1.41515 21.7801 0.862746 21.2277C0.310339 20.6752 0 19.926 0 19.1448V13.2536C0 12.4724 0.310339 11.7232 0.862746 11.1708C1.41515 10.6183 2.16438 10.308 2.9456 10.308H4.50971C4.86912 7.46093 6.25509 4.84285 8.40758 2.94501C10.5601 1.04716 13.3311 0 16.2008 0C19.0705 0 21.8415 1.04716 23.994 2.94501C26.1465 4.84285 27.5325 7.46093 27.8919 10.308H29.456Z" fill="#DBF227"/>
<path d="M11.5177 19.2764L9.95654 21.7742C11.8281 22.9468 13.9927 23.5671 16.2012 23.5637C18.4097 23.5671 20.5743 22.9468 22.4459 21.7742L20.8847 19.2764C19.481 20.1557 17.8576 20.6208 16.2012 20.6181C14.5449 20.6208 12.9214 20.1557 11.5177 19.2764Z" fill="#DBF227"/>
</svg>
